<?xml version="1.0" standalone="no"?><!DOCTYPE svg PUBLIC "-//W3C//DTD SVG 1.1//EN" "http://www.w3.org/Graphics/SVG/1.1/DTD/svg11.dtd"><svg t="1716734418625" class="icon" viewBox="0 0 1024 1024" version="1.1" xmlns="http://www.w3.org/2000/svg" p-id="922" width="16" height="16" xmlns:xlink="http://www.w3.org/1999/xlink"><path d="M826.90048 606.69952c20.43904 0 37.6832-7.29088 51.85536-21.79072A72.4992 72.4992 0 0 0 899.8912 532.48c0-20.39808-7.04512-37.6832-21.17632-51.8144a70.49216 70.49216 0 0 0-51.85536-21.21728h-221.3888V238.05952c0-20.43904-7.29088-37.888-21.79072-52.4288A71.43424 71.43424 0 0 0 531.2512 163.84c-20.39808 0-37.6832 7.24992-51.8144 21.79072a72.4992 72.4992 0 0 0-21.21728 52.4288v221.3888H236.87168c-20.43904 0-37.6832 7.08608-51.8144 21.21728A70.49216 70.49216 0 0 0 163.84 532.48c0 20.39808 7.08608 37.888 21.21728 52.4288 14.1312 14.49984 31.37536 21.79072 51.8144 21.79072h221.3888v220.20096c0 20.43904 7.08608 37.888 21.21728 52.4288 14.1312 14.5408 31.41632 21.79072 51.8144 21.79072 20.43904 0 37.888-7.24992 52.4288-21.79072 14.49984-14.5408 21.79072-31.98976 21.79072-52.4288v-220.20096h221.3888z" fill="#ffffff" p-id="923"></path></svg>